<?xml version="1.0" encoding="UTF-8" standalone="no"?>
<!DOCTYPE svg PUBLIC "-//W3C//DTD SVG 1.1//EN"
 "http://www.w3.org/Graphics/SVG/1.1/DTD/svg11.dtd">
<!-- Generated by graphviz version 9.0.0 (20230911.1827)
 -->
<!-- Title: project Pages: 1 -->
<svg width="686pt" height="315pt"
 viewBox="0.00 0.00 685.99 314.89" xmlns="http://www.w3.org/2000/svg" xmlns:xlink="http://www.w3.org/1999/xlink">
<g id="graph0" class="graph" transform="scale(1 1) rotate(0) translate(4 310.89)">
<title>project</title>
<polygon fill="white" stroke="none" points="-4,4 -4,-310.89 681.99,-310.89 681.99,4 -4,4"/>
<!-- cal&#45;client -->
<g id="node1" class="node">
<title>cal&#45;client</title>
<ellipse fill="none" stroke="black" cx="291.1" cy="-274.89" rx="45.21" ry="18"/>
<text text-anchor="middle" x="291.1" y="-269.84" font-family="Times,serif" font-size="14.00">cal&#45;client</text>
</g>
<!-- sharedJS -->
<g id="node11" class="node">
<title>sharedJS</title>
<ellipse fill="none" stroke="black" cx="458.61" cy="-288.89" rx="43.67" ry="18"/>
<text text-anchor="middle" x="458.61" y="-283.84" font-family="Times,serif" font-size="14.00">sharedJS</text>
</g>
<!-- cal&#45;client&#45;&gt;sharedJS -->
<g id="edge6" class="edge">
<title>cal&#45;client&#45;&gt;sharedJS</title>
<path fill="none" stroke="black" d="M335.59,-278.56C356.55,-280.34 381.89,-282.48 404.03,-284.35"/>
<polygon fill="black" stroke="black" points="403.51,-287.82 413.77,-285.18 404.1,-280.85 403.51,-287.82"/>
</g>
<!-- currency&#45;service -->
<g id="node2" class="node">
<title>currency&#45;service</title>
<ellipse fill="none" stroke="black" cx="291.1" cy="-88.89" rx="72.34" ry="18"/>
<text text-anchor="middle" x="291.1" y="-83.84" font-family="Times,serif" font-size="14.00">currency&#45;service</text>
</g>
<!-- currency&#45;core -->
<g id="node4" class="node">
<title>currency&#45;core</title>
<ellipse fill="none" stroke="black" cx="615.89" cy="-34.89" rx="62.1" ry="18"/>
<text text-anchor="middle" x="615.89" y="-29.84" font-family="Times,serif" font-size="14.00">currency&#45;core</text>
</g>
<!-- currency&#45;service&#45;&gt;currency&#45;core -->
<g id="edge2" class="edge">
<title>currency&#45;service&#45;&gt;currency&#45;core</title>
<path fill="none" stroke="black" d="M329.77,-104.55C381.11,-123.39 474.81,-148.63 545.79,-115.89 569.41,-104.99 587.94,-81.6 599.84,-62.74"/>
<polygon fill="black" stroke="black" points="602.69,-64.79 604.83,-54.41 596.69,-61.19 602.69,-64.79"/>
</g>
<!-- common&#45;http -->
<g id="node5" class="node">
<title>common&#45;http</title>
<ellipse fill="none" stroke="black" cx="458.61" cy="-180.89" rx="61.59" ry="18"/>
<text text-anchor="middle" x="458.61" y="-175.84" font-family="Times,serif" font-size="14.00">common&#45;http</text>
</g>
<!-- currency&#45;service&#45;&gt;common&#45;http -->
<g id="edge8" class="edge">
<title>currency&#45;service&#45;&gt;common&#45;http</title>
<path fill="none" stroke="black" d="M311.85,-106.42C327.26,-119.44 349.63,-136.93 371.44,-148.89 381.72,-154.53 393.21,-159.56 404.35,-163.88"/>
<polygon fill="black" stroke="black" points="402.88,-167.07 413.47,-167.27 405.32,-160.51 402.88,-167.07"/>
</g>
<!-- common&#45;rdbms -->
<g id="node8" class="node">
<title>common&#45;rdbms</title>
<ellipse fill="none" stroke="black" cx="458.61" cy="-88.89" rx="70.8" ry="18"/>
<text text-anchor="middle" x="458.61" y="-83.84" font-family="Times,serif" font-size="14.00">common&#45;rdbms</text>
</g>
<!-- currency&#45;service&#45;&gt;common&#45;rdbms -->
<g id="edge12" class="edge">
<title>currency&#45;service&#45;&gt;common&#45;rdbms</title>
<path fill="none" stroke="black" d="M363.74,-88.89C367.79,-88.89 371.88,-88.89 375.97,-88.89"/>
<polygon fill="black" stroke="black" points="375.93,-92.39 385.93,-88.89 375.93,-85.39 375.93,-92.39"/>
</g>
<!-- currency&#45;persistence -->
<g id="node9" class="node">
<title>currency&#45;persistence</title>
<ellipse fill="none" stroke="black" cx="458.61" cy="-34.89" rx="87.18" ry="18"/>
<text text-anchor="middle" x="458.61" y="-29.84" font-family="Times,serif" font-size="14.00">currency&#45;persistence</text>
</g>
<!-- currency&#45;service&#45;&gt;currency&#45;persistence -->
<g id="edge7" class="edge">
<title>currency&#45;service&#45;&gt;currency&#45;persistence</title>
<path fill="none" stroke="black" d="M334.86,-74.12C346.69,-70.09 359.54,-65.77 371.44,-61.89 380.02,-59.08 389.1,-56.17 398.02,-53.35"/>
<polygon fill="black" stroke="black" points="398.85,-56.76 407.34,-50.41 396.75,-50.08 398.85,-56.76"/>
</g>
<!-- root -->
<g id="node3" class="node">
<title>root</title>
<ellipse fill="none" stroke="black" cx="27" cy="-109.89" rx="27" ry="18"/>
<text text-anchor="middle" x="27" y="-104.84" font-family="Times,serif" font-size="14.00">root</text>
</g>
<!-- cal&#45;module -->
<g id="node6" class="node">
<title>cal&#45;module</title>
<ellipse fill="none" stroke="black" cx="136.38" cy="-207.89" rx="52.89" ry="18"/>
<text text-anchor="middle" x="136.38" y="-202.84" font-family="Times,serif" font-size="14.00">cal&#45;module</text>
</g>
<!-- root&#45;&gt;cal&#45;module -->
<g id="edge15" class="edge">
<title>root&#45;&gt;cal&#45;module</title>
<path fill="none" stroke="black" d="M43.84,-124.35C60.79,-139.81 87.98,-164.62 108.33,-183.19"/>
<polygon fill="black" stroke="black" points="105.71,-185.55 115.46,-189.7 110.43,-180.38 105.71,-185.55"/>
</g>
<!-- currency&#45;module -->
<g id="node10" class="node">
<title>currency&#45;module</title>
<ellipse fill="none" stroke="black" cx="136.38" cy="-63.89" rx="74.38" ry="18"/>
<text text-anchor="middle" x="136.38" y="-58.84" font-family="Times,serif" font-size="14.00">currency&#45;module</text>
</g>
<!-- root&#45;&gt;currency&#45;module -->
<g id="edge5" class="edge">
<title>root&#45;&gt;currency&#45;module</title>
<path fill="none" stroke="black" d="M50.25,-100.35C61.2,-95.66 74.86,-89.81 88,-84.18"/>
<polygon fill="black" stroke="black" points="89.16,-87.49 96.97,-80.34 86.4,-81.06 89.16,-87.49"/>
</g>
<!-- cal&#45;module&#45;&gt;cal&#45;client -->
<g id="edge4" class="edge">
<title>cal&#45;module&#45;&gt;cal&#45;client</title>
<path fill="none" stroke="black" d="M169.77,-222.09C192.98,-232.28 224.42,-246.07 249.34,-257"/>
<polygon fill="black" stroke="black" points="247.63,-260.07 258.19,-260.89 250.44,-253.66 247.63,-260.07"/>
</g>
<!-- cal&#45;server -->
<g id="node12" class="node">
<title>cal&#45;server</title>
<ellipse fill="none" stroke="black" cx="291.1" cy="-207.89" rx="47.26" ry="18"/>
<text text-anchor="middle" x="291.1" y="-202.84" font-family="Times,serif" font-size="14.00">cal&#45;server</text>
</g>
<!-- cal&#45;module&#45;&gt;cal&#45;server -->
<g id="edge11" class="edge">
<title>cal&#45;module&#45;&gt;cal&#45;server</title>
<path fill="none" stroke="black" d="M189.51,-207.89C203.22,-207.89 218.08,-207.89 232.07,-207.89"/>
<polygon fill="black" stroke="black" points="232.06,-211.39 242.06,-207.89 232.06,-204.39 232.06,-211.39"/>
</g>
<!-- sharedJVM -->
<g id="node7" class="node">
<title>sharedJVM</title>
<ellipse fill="none" stroke="black" cx="458.61" cy="-234.89" rx="53.91" ry="18"/>
<text text-anchor="middle" x="458.61" y="-229.84" font-family="Times,serif" font-size="14.00">sharedJVM</text>
</g>
<!-- currency&#45;persistence&#45;&gt;currency&#45;core -->
<g id="edge9" class="edge">
<title>currency&#45;persistence&#45;&gt;currency&#45;core</title>
<path fill="none" stroke="black" d="M545.88,-34.89C546.04,-34.89 546.19,-34.89 546.35,-34.89"/>
<polygon fill="black" stroke="black" points="541.86,-38.39 551.86,-34.89 541.86,-31.39 541.86,-38.39"/>
</g>
<!-- currency&#45;module&#45;&gt;currency&#45;service -->
<g id="edge13" class="edge">
<title>currency&#45;module&#45;&gt;currency&#45;service</title>
<path fill="none" stroke="black" d="M199.06,-73.98C205.53,-75.04 212.15,-76.12 218.71,-77.2"/>
<polygon fill="black" stroke="black" points="217.76,-80.59 228.19,-78.75 218.89,-73.68 217.76,-80.59"/>
</g>
<!-- currency&#45;module&#45;&gt;currency&#45;core -->
<g id="edge3" class="edge">
<title>currency&#45;module&#45;&gt;currency&#45;core</title>
<path fill="none" stroke="black" d="M180.24,-48.95C254.87,-24.96 413.4,17.06 545.79,-7.89 554.51,-9.53 563.55,-12.24 572.09,-15.33"/>
<polygon fill="black" stroke="black" points="570.59,-18.51 581.18,-18.85 573.12,-11.98 570.59,-18.51"/>
</g>
<!-- currency&#45;module&#45;&gt;currency&#45;persistence -->
<g id="edge14" class="edge">
<title>currency&#45;module&#45;&gt;currency&#45;persistence</title>
<path fill="none" stroke="black" d="M206.47,-57.63C253.31,-53.39 315.71,-47.74 366.59,-43.13"/>
<polygon fill="black" stroke="black" points="366.77,-46.63 376.42,-42.24 366.14,-39.65 366.77,-46.63"/>
</g>
<!-- cal&#45;server&#45;&gt;common&#45;http -->
<g id="edge10" class="edge">
<title>cal&#45;server&#45;&gt;common&#45;http</title>
<path fill="none" stroke="black" d="M335.16,-200.86C352.77,-197.99 373.53,-194.6 392.9,-191.44"/>
<polygon fill="black" stroke="black" points="393.32,-194.92 402.62,-189.86 392.19,-188.01 393.32,-194.92"/>
</g>
<!-- cal&#45;server&#45;&gt;sharedJVM -->
<g id="edge1" class="edge">
<title>cal&#45;server&#45;&gt;sharedJVM</title>
<path fill="none" stroke="black" d="M335.16,-214.91C354.39,-218.05 377.37,-221.8 398.21,-225.19"/>
<polygon fill="black" stroke="black" points="397.6,-228.64 408.03,-226.8 398.72,-221.73 397.6,-228.64"/>
</g>
</g>
</svg>
